<mxfile host="app.diagrams.net" modified="2022-10-13T22:22:22.383Z" agent="5.0 (Windows)" etag="l7btdAOvBCmtNEETLR2h" version="20.4.0" type="github">
  <diagram id="V3w-PnsSzYSuctR8A5rE" name="Page-1">
    <mxGraphModel dx="1097" dy="974" grid="1" gridSize="10" guides="1" tooltips="1" connect="1" arrows="1" fold="1" page="1" pageScale="1" pageWidth="850" pageHeight="1100" math="0" shadow="0">
      <root>
        <mxCell id="0" />
        <mxCell id="1" parent="0" />
        <mxCell id="fxe1xh0IcaRhxHbzFFl_-1" value="User" style="swimlane;fillColor=#cce5ff;strokeColor=#36393d;fontSize=18;" vertex="1" parent="1">
          <mxGeometry x="80" y="160" width="280" height="780" as="geometry" />
        </mxCell>
        <mxCell id="fxe1xh0IcaRhxHbzFFl_-2" style="edgeStyle=orthogonalEdgeStyle;rounded=0;orthogonalLoop=1;jettySize=auto;html=1;exitX=0.5;exitY=1;exitDx=0;exitDy=0;entryX=0.5;entryY=0;entryDx=0;entryDy=0;" edge="1" parent="fxe1xh0IcaRhxHbzFFl_-1" source="fxe1xh0IcaRhxHbzFFl_-3" target="fxe1xh0IcaRhxHbzFFl_-6">
          <mxGeometry relative="1" as="geometry" />
        </mxCell>
        <mxCell id="fxe1xh0IcaRhxHbzFFl_-3" value="&lt;div style=&quot;font-size: 18px;&quot;&gt;&lt;font style=&quot;font-size: 18px;&quot;&gt;Login and provide&lt;/font&gt;&lt;/div&gt;&lt;div style=&quot;font-size: 18px;&quot;&gt;&lt;font style=&quot;font-size: 18px;&quot;&gt;basic user pfrofile&lt;br&gt;&lt;/font&gt;&lt;/div&gt;" style="rounded=1;whiteSpace=wrap;html=1;fillColor=#647687;strokeColor=#314354;fontColor=#ffffff;" vertex="1" parent="fxe1xh0IcaRhxHbzFFl_-1">
          <mxGeometry x="50" y="100" width="180" height="50" as="geometry" />
        </mxCell>
        <mxCell id="fxe1xh0IcaRhxHbzFFl_-4" style="edgeStyle=orthogonalEdgeStyle;rounded=0;orthogonalLoop=1;jettySize=auto;html=1;exitX=0.5;exitY=1;exitDx=0;exitDy=0;entryX=0.5;entryY=0;entryDx=0;entryDy=0;" edge="1" parent="fxe1xh0IcaRhxHbzFFl_-1" source="fxe1xh0IcaRhxHbzFFl_-5" target="fxe1xh0IcaRhxHbzFFl_-3">
          <mxGeometry relative="1" as="geometry" />
        </mxCell>
        <mxCell id="fxe1xh0IcaRhxHbzFFl_-5" value="" style="ellipse;whiteSpace=wrap;html=1;aspect=fixed;fillColor=#000000;" vertex="1" parent="fxe1xh0IcaRhxHbzFFl_-1">
          <mxGeometry x="125" y="50" width="30" height="30" as="geometry" />
        </mxCell>
        <mxCell id="fxe1xh0IcaRhxHbzFFl_-6" value="&lt;div style=&quot;font-size: 18px;&quot;&gt;&lt;font style=&quot;font-size: 18px;&quot;&gt;Fill in Personality &lt;br&gt;&lt;/font&gt;&lt;/div&gt;&lt;div style=&quot;font-size: 18px;&quot;&gt;&lt;font style=&quot;font-size: 18px;&quot;&gt;questionaire&lt;br&gt;&lt;/font&gt;&lt;/div&gt;" style="rounded=1;whiteSpace=wrap;html=1;fillColor=#647687;strokeColor=#314354;fontColor=#ffffff;" vertex="1" parent="fxe1xh0IcaRhxHbzFFl_-1">
          <mxGeometry x="50" y="190" width="180" height="50" as="geometry" />
        </mxCell>
        <mxCell id="fxe1xh0IcaRhxHbzFFl_-7" style="edgeStyle=orthogonalEdgeStyle;rounded=0;orthogonalLoop=1;jettySize=auto;html=1;exitX=0.25;exitY=1;exitDx=0;exitDy=0;entryX=0.561;entryY=0.004;entryDx=0;entryDy=0;entryPerimeter=0;" edge="1" parent="fxe1xh0IcaRhxHbzFFl_-1">
          <mxGeometry relative="1" as="geometry">
            <mxPoint x="172.99999999999966" y="604" as="sourcePoint" />
            <mxPoint x="140.32000000000005" y="624.2" as="targetPoint" />
          </mxGeometry>
        </mxCell>
        <mxCell id="fxe1xh0IcaRhxHbzFFl_-8" value="" style="rounded=0;whiteSpace=wrap;html=1;fillColor=#000000;" vertex="1" parent="fxe1xh0IcaRhxHbzFFl_-1">
          <mxGeometry x="80" y="594" width="400" height="10" as="geometry" />
        </mxCell>
        <mxCell id="fxe1xh0IcaRhxHbzFFl_-9" style="edgeStyle=orthogonalEdgeStyle;rounded=0;orthogonalLoop=1;jettySize=auto;html=1;exitX=0.5;exitY=1;exitDx=0;exitDy=0;entryX=0.5;entryY=0;entryDx=0;entryDy=0;" edge="1" parent="fxe1xh0IcaRhxHbzFFl_-1" source="fxe1xh0IcaRhxHbzFFl_-10">
          <mxGeometry relative="1" as="geometry">
            <mxPoint x="140" y="725.5" as="targetPoint" />
          </mxGeometry>
        </mxCell>
        <mxCell id="fxe1xh0IcaRhxHbzFFl_-10" value="Show recommended users" style="rounded=1;whiteSpace=wrap;html=1;fillColor=#647687;strokeColor=#314354;fontColor=#ffffff;" vertex="1" parent="fxe1xh0IcaRhxHbzFFl_-1">
          <mxGeometry x="80" y="626" width="120" height="50" as="geometry" />
        </mxCell>
        <mxCell id="fxe1xh0IcaRhxHbzFFl_-11" value="" style="group" vertex="1" connectable="0" parent="fxe1xh0IcaRhxHbzFFl_-1">
          <mxGeometry x="122.5" y="725.5" width="35" height="35" as="geometry" />
        </mxCell>
        <mxCell id="fxe1xh0IcaRhxHbzFFl_-12" value="" style="ellipse;whiteSpace=wrap;html=1;aspect=fixed;fillColor=#FFFFFF;strokeColor=default;" vertex="1" parent="fxe1xh0IcaRhxHbzFFl_-11">
          <mxGeometry width="35" height="35" as="geometry" />
        </mxCell>
        <mxCell id="fxe1xh0IcaRhxHbzFFl_-13" value="" style="ellipse;whiteSpace=wrap;html=1;aspect=fixed;fillColor=#000000;" vertex="1" parent="fxe1xh0IcaRhxHbzFFl_-11">
          <mxGeometry x="2.5" y="2.5" width="30" height="30" as="geometry" />
        </mxCell>
        <mxCell id="fxe1xh0IcaRhxHbzFFl_-14" value="System" style="swimlane;fillColor=#eeeeee;strokeColor=#36393d;fontSize=18;" vertex="1" parent="1">
          <mxGeometry x="360" y="160" width="280" height="780" as="geometry" />
        </mxCell>
        <mxCell id="fxe1xh0IcaRhxHbzFFl_-15" style="edgeStyle=orthogonalEdgeStyle;rounded=0;orthogonalLoop=1;jettySize=auto;html=1;exitX=0.5;exitY=1;exitDx=0;exitDy=0;entryX=0.15;entryY=0;entryDx=0;entryDy=0;entryPerimeter=0;" edge="1" parent="fxe1xh0IcaRhxHbzFFl_-14" source="fxe1xh0IcaRhxHbzFFl_-16" target="fxe1xh0IcaRhxHbzFFl_-18">
          <mxGeometry relative="1" as="geometry" />
        </mxCell>
        <mxCell id="fxe1xh0IcaRhxHbzFFl_-16" value="&lt;div style=&quot;font-size: 18px;&quot;&gt;&lt;font style=&quot;font-size: 18px;&quot;&gt;Obtain user-provided&lt;/font&gt;&lt;/div&gt;&lt;div style=&quot;font-size: 18px;&quot;&gt;&lt;font style=&quot;font-size: 18px;&quot;&gt;data&lt;br&gt;&lt;/font&gt;&lt;/div&gt;" style="rounded=1;whiteSpace=wrap;html=1;fillColor=#647687;strokeColor=#314354;fontColor=#ffffff;" vertex="1" parent="fxe1xh0IcaRhxHbzFFl_-14">
          <mxGeometry x="50" y="100" width="180" height="50" as="geometry" />
        </mxCell>
        <mxCell id="fxe1xh0IcaRhxHbzFFl_-17" style="edgeStyle=orthogonalEdgeStyle;rounded=0;orthogonalLoop=1;jettySize=auto;html=1;exitX=0.5;exitY=1;exitDx=0;exitDy=0;entryX=0.5;entryY=0;entryDx=0;entryDy=0;" edge="1" parent="fxe1xh0IcaRhxHbzFFl_-14" source="fxe1xh0IcaRhxHbzFFl_-18" target="fxe1xh0IcaRhxHbzFFl_-20">
          <mxGeometry relative="1" as="geometry">
            <Array as="points">
              <mxPoint x="140" y="247" />
            </Array>
          </mxGeometry>
        </mxCell>
        <mxCell id="fxe1xh0IcaRhxHbzFFl_-18" value="" style="rounded=0;whiteSpace=wrap;html=1;fillColor=#000000;" vertex="1" parent="fxe1xh0IcaRhxHbzFFl_-14">
          <mxGeometry x="80" y="237" width="400" height="10" as="geometry" />
        </mxCell>
        <mxCell id="fxe1xh0IcaRhxHbzFFl_-19" style="edgeStyle=orthogonalEdgeStyle;rounded=0;orthogonalLoop=1;jettySize=auto;html=1;exitX=0.5;exitY=1;exitDx=0;exitDy=0;entryX=0.5;entryY=0;entryDx=0;entryDy=0;" edge="1" parent="fxe1xh0IcaRhxHbzFFl_-14" source="fxe1xh0IcaRhxHbzFFl_-20" target="fxe1xh0IcaRhxHbzFFl_-22">
          <mxGeometry relative="1" as="geometry" />
        </mxCell>
        <mxCell id="fxe1xh0IcaRhxHbzFFl_-20" value="&lt;font style=&quot;font-size: 18px;&quot;&gt;Preprocess data&lt;/font&gt;" style="rounded=1;whiteSpace=wrap;html=1;fillColor=#647687;strokeColor=#314354;fontColor=#ffffff;" vertex="1" parent="fxe1xh0IcaRhxHbzFFl_-14">
          <mxGeometry x="50" y="270" width="180" height="50" as="geometry" />
        </mxCell>
        <mxCell id="fxe1xh0IcaRhxHbzFFl_-21" style="edgeStyle=orthogonalEdgeStyle;rounded=0;orthogonalLoop=1;jettySize=auto;html=1;exitX=0.5;exitY=1;exitDx=0;exitDy=0;entryX=0.5;entryY=0;entryDx=0;entryDy=0;" edge="1" parent="fxe1xh0IcaRhxHbzFFl_-14" source="fxe1xh0IcaRhxHbzFFl_-22" target="fxe1xh0IcaRhxHbzFFl_-24">
          <mxGeometry relative="1" as="geometry" />
        </mxCell>
        <mxCell id="fxe1xh0IcaRhxHbzFFl_-22" value="&lt;font style=&quot;font-size: 18px;&quot;&gt;Extract features from processed data&lt;/font&gt;" style="rounded=1;whiteSpace=wrap;html=1;fillColor=#647687;strokeColor=#314354;fontColor=#ffffff;" vertex="1" parent="fxe1xh0IcaRhxHbzFFl_-14">
          <mxGeometry x="50" y="340" width="180" height="50" as="geometry" />
        </mxCell>
        <mxCell id="fxe1xh0IcaRhxHbzFFl_-41" style="edgeStyle=orthogonalEdgeStyle;rounded=0;orthogonalLoop=1;jettySize=auto;html=1;exitX=0.5;exitY=1;exitDx=0;exitDy=0;entryX=0.5;entryY=0;entryDx=0;entryDy=0;" edge="1" parent="fxe1xh0IcaRhxHbzFFl_-14" source="fxe1xh0IcaRhxHbzFFl_-24" target="fxe1xh0IcaRhxHbzFFl_-28">
          <mxGeometry relative="1" as="geometry" />
        </mxCell>
        <mxCell id="fxe1xh0IcaRhxHbzFFl_-24" value="&lt;font style=&quot;font-size: 18px;&quot;&gt;Find similar users&lt;/font&gt;" style="rounded=1;whiteSpace=wrap;html=1;fillColor=#647687;strokeColor=#314354;fontColor=#ffffff;" vertex="1" parent="fxe1xh0IcaRhxHbzFFl_-14">
          <mxGeometry x="50" y="430" width="180" height="50" as="geometry" />
        </mxCell>
        <mxCell id="fxe1xh0IcaRhxHbzFFl_-25" value="KNN" style="text;html=1;strokeColor=none;fillColor=none;align=center;verticalAlign=middle;whiteSpace=wrap;rounded=0;" vertex="1" parent="fxe1xh0IcaRhxHbzFFl_-14">
          <mxGeometry x="140" y="396" width="60" height="30" as="geometry" />
        </mxCell>
        <mxCell id="fxe1xh0IcaRhxHbzFFl_-28" value="&lt;font style=&quot;font-size: 18px;&quot;&gt;Evaluate recommended users&lt;/font&gt;" style="rounded=1;whiteSpace=wrap;html=1;fillColor=#647687;strokeColor=#314354;fontColor=#ffffff;" vertex="1" parent="fxe1xh0IcaRhxHbzFFl_-14">
          <mxGeometry x="50" y="510" width="180" height="50" as="geometry" />
        </mxCell>
        <mxCell id="fxe1xh0IcaRhxHbzFFl_-29" value="&lt;font style=&quot;font-size: 18px;&quot;&gt;Recommend users&lt;/font&gt;" style="rounded=1;whiteSpace=wrap;html=1;fillColor=#647687;strokeColor=#314354;fontColor=#ffffff;" vertex="1" parent="fxe1xh0IcaRhxHbzFFl_-14">
          <mxGeometry x="50" y="627" width="180" height="50" as="geometry" />
        </mxCell>
        <mxCell id="fxe1xh0IcaRhxHbzFFl_-30" value="SyStem Admin" style="swimlane;fillColor=#cce5ff;strokeColor=#36393d;fontSize=18;" vertex="1" parent="1">
          <mxGeometry x="640" y="160" width="280" height="780" as="geometry" />
        </mxCell>
        <mxCell id="fxe1xh0IcaRhxHbzFFl_-31" style="edgeStyle=orthogonalEdgeStyle;rounded=0;orthogonalLoop=1;jettySize=auto;html=1;exitX=0.5;exitY=1;exitDx=0;exitDy=0;entryX=0.5;entryY=0;entryDx=0;entryDy=0;" edge="1" parent="fxe1xh0IcaRhxHbzFFl_-30" source="fxe1xh0IcaRhxHbzFFl_-32" target="fxe1xh0IcaRhxHbzFFl_-35">
          <mxGeometry relative="1" as="geometry" />
        </mxCell>
        <mxCell id="fxe1xh0IcaRhxHbzFFl_-32" value="&lt;div style=&quot;font-size: 18px;&quot;&gt;&lt;font style=&quot;font-size: 18px;&quot;&gt;Collect required&lt;/font&gt;&lt;/div&gt;&lt;div style=&quot;font-size: 18px;&quot;&gt;&lt;font style=&quot;font-size: 18px;&quot;&gt;data&lt;br&gt;&lt;/font&gt;&lt;/div&gt;" style="rounded=1;whiteSpace=wrap;html=1;fillColor=#647687;strokeColor=#314354;fontColor=#ffffff;" vertex="1" parent="fxe1xh0IcaRhxHbzFFl_-30">
          <mxGeometry x="60" y="100" width="160" height="50" as="geometry" />
        </mxCell>
        <mxCell id="fxe1xh0IcaRhxHbzFFl_-33" style="edgeStyle=orthogonalEdgeStyle;rounded=0;orthogonalLoop=1;jettySize=auto;html=1;exitX=0.5;exitY=1;exitDx=0;exitDy=0;entryX=0.5;entryY=0;entryDx=0;entryDy=0;" edge="1" parent="fxe1xh0IcaRhxHbzFFl_-30" source="fxe1xh0IcaRhxHbzFFl_-34" target="fxe1xh0IcaRhxHbzFFl_-32">
          <mxGeometry relative="1" as="geometry" />
        </mxCell>
        <mxCell id="fxe1xh0IcaRhxHbzFFl_-34" value="" style="ellipse;whiteSpace=wrap;html=1;aspect=fixed;fillColor=#000000;" vertex="1" parent="fxe1xh0IcaRhxHbzFFl_-30">
          <mxGeometry x="125" y="50" width="30" height="30" as="geometry" />
        </mxCell>
        <mxCell id="fxe1xh0IcaRhxHbzFFl_-35" value="&lt;font style=&quot;font-size: 18px;&quot;&gt;Load/update data into database&lt;/font&gt;" style="rounded=1;whiteSpace=wrap;html=1;fillColor=#647687;strokeColor=#314354;fontColor=#ffffff;" vertex="1" parent="fxe1xh0IcaRhxHbzFFl_-30">
          <mxGeometry x="60" y="170" width="160" height="50" as="geometry" />
        </mxCell>
        <mxCell id="fxe1xh0IcaRhxHbzFFl_-36" style="edgeStyle=orthogonalEdgeStyle;rounded=0;orthogonalLoop=1;jettySize=auto;html=1;entryX=0;entryY=0.5;entryDx=0;entryDy=0;" edge="1" parent="1" source="fxe1xh0IcaRhxHbzFFl_-6" target="fxe1xh0IcaRhxHbzFFl_-16">
          <mxGeometry relative="1" as="geometry">
            <Array as="points">
              <mxPoint x="350" y="380" />
              <mxPoint x="350" y="290" />
            </Array>
          </mxGeometry>
        </mxCell>
        <mxCell id="fxe1xh0IcaRhxHbzFFl_-37" style="edgeStyle=orthogonalEdgeStyle;rounded=0;orthogonalLoop=1;jettySize=auto;html=1;exitX=0.5;exitY=1;exitDx=0;exitDy=0;entryX=0.847;entryY=0;entryDx=0;entryDy=0;entryPerimeter=0;" edge="1" parent="1" source="fxe1xh0IcaRhxHbzFFl_-35" target="fxe1xh0IcaRhxHbzFFl_-18">
          <mxGeometry relative="1" as="geometry" />
        </mxCell>
        <mxCell id="fxe1xh0IcaRhxHbzFFl_-39" style="edgeStyle=orthogonalEdgeStyle;rounded=0;orthogonalLoop=1;jettySize=auto;html=1;exitX=0.75;exitY=1;exitDx=0;exitDy=0;entryX=0.438;entryY=0.027;entryDx=0;entryDy=0;entryPerimeter=0;" edge="1" parent="1">
          <mxGeometry relative="1" as="geometry">
            <mxPoint x="465" y="764" as="sourcePoint" />
            <mxPoint x="497.55999999999995" y="785.3500000000004" as="targetPoint" />
          </mxGeometry>
        </mxCell>
        <mxCell id="fxe1xh0IcaRhxHbzFFl_-42" style="edgeStyle=orthogonalEdgeStyle;rounded=0;orthogonalLoop=1;jettySize=auto;html=1;exitX=0.5;exitY=1;exitDx=0;exitDy=0;" edge="1" parent="1" source="fxe1xh0IcaRhxHbzFFl_-28">
          <mxGeometry relative="1" as="geometry">
            <mxPoint x="500.14285714285734" y="750" as="targetPoint" />
          </mxGeometry>
        </mxCell>
        <mxCell id="fxe1xh0IcaRhxHbzFFl_-43" style="edgeStyle=orthogonalEdgeStyle;rounded=0;orthogonalLoop=1;jettySize=auto;html=1;exitX=0;exitY=0.5;exitDx=0;exitDy=0;" edge="1" parent="1" source="fxe1xh0IcaRhxHbzFFl_-29" target="fxe1xh0IcaRhxHbzFFl_-10">
          <mxGeometry relative="1" as="geometry" />
        </mxCell>
      </root>
    </mxGraphModel>
  </diagram>
</mxfile>
